<svg width="120" height="120" viewBox="0 0 80 81" fill="none" xmlns="http://www.w3.org/2000/svg">
<g clip-path="url(#clip0_1277_370)">
<path fill-rule="evenodd" clip-rule="evenodd" d="M26.4667 44.0332C25.5303 43.0957 25.0044 41.8249 25.0044 40.4999C25.0044 39.1749 25.5303 37.9041 26.4667 36.9666L45.32 18.1066C46.258 17.169 47.53 16.6425 48.8562 16.6428C49.5128 16.643 50.1631 16.7725 50.7697 17.0239C51.3763 17.2753 51.9274 17.6438 52.3917 18.1082C52.8559 18.5727 53.2241 19.124 53.4752 19.7308C53.7264 20.3375 53.8556 20.9878 53.8554 21.6444C53.8553 22.3011 53.7258 22.9513 53.4743 23.5579C53.2229 24.1645 52.8544 24.7157 52.39 25.1799L37.0733 40.4999L52.3933 55.8199C52.8711 56.2809 53.2523 56.8325 53.5146 57.4424C53.7769 58.0523 53.9152 58.7083 53.9212 59.3722C53.9273 60.0361 53.8011 60.6945 53.55 61.3091C53.2989 61.9237 52.9279 62.4822 52.4587 62.9518C51.9894 63.4215 51.4313 63.793 50.817 64.0447C50.2026 64.2964 49.5443 64.4233 48.8804 64.4178C48.2165 64.4123 47.5603 64.2747 46.9502 64.013C46.34 63.7512 45.7881 63.3706 45.3267 62.8932L26.46 44.0332H26.4667Z" fill="#005D79"/>
</g>
<defs>
<clipPath id="clip0_1277_370">
<rect width="80" height="80" fill="white" transform="translate(0 0.5)"/>
</clipPath>
</defs>
</svg>
