<svg width="120" height="121" viewBox="0 0 120 121" fill="none" xmlns="http://www.w3.org/2000/svg">
<path d="M55 13.175C51.9593 11.4194 48.51 10.4953 44.9989 10.4955C41.4878 10.4957 38.0386 11.4202 34.9981 13.1761C31.9575 14.932 29.4329 17.4574 27.6778 20.4984C25.9228 23.5394 24.9992 26.9889 25 30.5V39.37C20.745 41.08 17.255 43.74 14.705 47.245C11.46 51.71 10 57.175 10 63C10 70.805 13.975 77.68 20 81.71V88C19.9997 92.0746 21.1058 96.0728 23.2004 99.5678C25.2949 103.063 28.2993 105.924 31.8926 107.844C35.486 109.765 39.5336 110.674 43.6033 110.475C47.673 110.275 51.612 108.974 55 106.71V88C55 81.335 53.35 77.075 50.7 74.2C47.985 71.265 43.58 69.08 36.68 67.93L38.32 58.07C44.83 59.15 50.53 61.185 55 64.635V13.175ZM65 13.175V64.635C69.47 61.185 75.17 59.15 81.68 58.07L83.32 67.93C76.42 69.08 72.015 71.265 69.3 74.205C66.65 77.075 65 81.335 65 88V106.71C68.3879 108.974 72.327 110.275 76.3967 110.475C80.4664 110.674 84.514 109.765 88.1074 107.844C91.7007 105.924 94.705 103.063 96.7996 99.5678C98.8941 96.0728 100 92.0746 100 88V81.71C106.025 77.68 110 70.81 110 63C110 57.175 108.54 51.71 105.295 47.25C102.745 43.74 99.255 41.08 95 39.37V30.5C95.0008 26.9889 94.0772 23.5394 92.3222 20.4984C90.5671 17.4574 88.0425 14.932 85.0019 13.1761C81.9614 11.4202 78.5122 10.4957 75.0011 10.4955C71.49 10.4953 68.0407 11.4194 65 13.175Z" fill="#B9D662"/>
</svg>
