<svg width="120" height="121" viewBox="0 0 120 121" fill="none" xmlns="http://www.w3.org/2000/svg">
<path d="M108.55 101.95L101.45 109.05C100.513 109.981 99.2459 110.504 97.925 110.504C96.6041 110.504 95.3368 109.981 94.4 109.05L35 49.75C33.3742 50.2216 31.6926 50.4739 30 50.5C26.8165 50.4977 23.6796 49.7355 20.85 48.2768C18.0203 46.8181 15.5798 44.705 13.7313 42.1131C11.8828 39.5213 10.6797 36.5257 10.222 33.3752C9.76437 30.2248 10.0654 27.0107 11.1 24L23.8 36.7L26.45 34.05L33.55 26.95L36.2 24.3L23.5 11.6C26.5107 10.5654 29.7248 10.2644 32.8752 10.722C36.0257 11.1797 39.0213 12.3828 41.6131 14.2313C44.205 16.0798 46.3181 18.5203 47.7768 21.35C49.2355 24.1796 49.9977 27.3165 50 30.5C49.9739 32.1926 49.7216 33.8742 49.25 35.5L108.55 94.9C109.481 95.8368 110.004 97.1041 110.004 98.425C110.004 99.7459 109.481 101.013 108.55 101.95ZM11.45 94.9C10.5187 95.8368 9.99604 97.1041 9.99604 98.425C9.99604 99.7459 10.5187 101.013 11.45 101.95L18.55 109.05C19.4868 109.981 20.7541 110.504 22.075 110.504C23.3959 110.504 24.6632 109.981 25.6 109.05L52.95 81.75L38.8 67.6M100 10.5L80 20.5V30.5L69.15 41.35L79.15 51.35L90 40.5H100L110 20.5L100 10.5Z" fill="#B9D662"/>
</svg>
